<?xml version="1.0" encoding="utf-8"?>
<!-- Generator: Adobe Illustrator 24.2.0, SVG Export Plug-In . SVG Version: 6.00 Build 0)  -->
<svg version="1.1" id="レイヤー_1" xmlns="http://www.w3.org/2000/svg" xmlns:xlink="http://www.w3.org/1999/xlink" x="0px"
	 y="0px" viewBox="0 0 88 88" style="enable-background:new 0 0 88 88;" xml:space="preserve">
<style type="text/css">
	.st0{fill:#077F83;}
</style>
<path shape-rendering="auto" image-rendering="auto" color-rendering="auto" class="st0" d="M0.6,0.6C0.2,1,0,1.5,0,2l0.5,39.7
	c0,0.5,0.2,1,0.6,1.4l44.3,44.3c0.8,0.8,2,0.8,2.8,0l39.2-39.2c0.8-0.8,0.8-2,0-2.8L43.1,1.1c-0.4-0.4-0.9-0.6-1.4-0.6L2,0
	C1.5,0,1,0.2,0.6,0.6 M16,16c3.1-3.1,8.1-3.1,11.2,0s3.1,8.1,0,11.2s-8.1,3.1-11.2,0S12.9,19.1,16,16"/>
</svg>
